<svg width="156" height="40" viewBox="0 0 156 40" fill="none" xmlns="http://www.w3.org/2000/svg">
  <defs>
    <linearGradient id="volspike-gradient" x1="4" y1="36" x2="36" y2="4" gradientUnits="userSpaceOnUse">
      <stop stop-color="#22C55E"/>
      <stop offset="1" stop-color="#0EA5E9"/>
    </linearGradient>
    <filter id="glow" x="0" y="0" width="40" height="40" filterUnits="userSpaceOnUse" color-interpolation-filters="sRGB">
      <feDropShadow dx="0" dy="2" stdDeviation="3" flood-color="#22C55E" flood-opacity="0.3" />
    </filter>
  </defs>

  <g filter="url(#glow)">
    <circle cx="20" cy="20" r="16" fill="url(#volspike-gradient)"/>
    <path d="M17 10L12 20H19L17 30L27 20H20L22 10H17Z" fill="white" stroke="white" stroke-width="1.2" stroke-linejoin="round"/>
  </g>

  <g transform="translate(48, 9)" fill="white">
    <path d="M8.6 21.5C4.1 21.5 1 18.9 1 14.6C1 10.3 4.2 7.7 8.7 7.7C10.9 7.7 12.6 8.2 14.2 9.4C15.5 10.3 16.3 11.3 16.6 12.5H12.5C12.1 11.9 11.7 11.4 11.1 11.0C10.4 10.6 9.6 10.4 8.6 10.4C6.0 10.4 4.3 12.0 4.3 14.6C4.3 17.2 6.0 18.8 8.6 18.8C9.6 18.8 10.4 18.6 11.1 18.2C11.7 17.8 12.1 17.3 12.5 16.7H16.6C16.3 17.9 15.5 18.9 14.2 19.8C12.6 21.0 10.8 21.5 8.6 21.5Z"/>
    <path d="M20.5 7.9H23.9V15.3C23.9 16.4 24.1 17.1 24.5 17.6C24.9 18.0 25.5 18.2 26.4 18.2C27.2 18.2 27.7 18.0 28.2 17.6C28.6 17.1 28.8 16.4 28.8 15.3V7.9H32.2V15.3C32.2 16.8 31.8 17.9 31.0 18.7C30.2 19.5 28.9 19.9 27.2 19.9C25.5 19.9 24.2 19.5 23.4 18.7C22.6 17.9 22.2 16.8 22.2 15.3V7.9H20.5Z"/>
    <path d="M41.0 19.8C39.0 19.8 37.4 19.2 36.3 18.0C35.2 16.8 34.7 15.1 34.7 13.0C34.7 10.9 35.2 9.2 36.3 7.9C37.4 6.7 39.0 6.1 41.0 6.1C43.0 6.1 44.5 6.7 45.6 7.9C46.7 9.2 47.2 10.9 47.2 13.0C47.2 15.1 46.7 16.8 45.6 18.0C44.5 19.2 43.0 19.8 41.0 19.8ZM41.0 17.2C41.9 17.2 42.6 16.8 43.0 16.0C43.4 15.2 43.7 14.2 43.7 13.0C43.7 11.8 43.4 10.9 43.0 10.1C42.6 9.3 41.9 8.9 41.0 8.9C40.1 8.9 39.3 9.3 38.9 10.1C38.5 10.9 38.2 11.8 38.2 13.0C38.2 14.2 38.5 15.2 38.9 16.0C39.3 16.8 40.1 17.2 41.0 17.2Z"/>
    <path d="M51.2 0H54.6V7.4C55.6 6.5 56.8 6.0 58.3 6.0C60.1 6.0 61.5 6.6 62.6 7.8C63.7 9.1 64.2 10.9 64.2 13.0C64.2 15.1 63.7 16.8 62.6 18.0C61.5 19.3 60.0 19.9 58.1 19.9C56.1 19.9 54.6 19.2 53.4 17.9V19.6H51.2V0ZM58.5 17.2C59.5 17.2 60.2 16.8 60.7 16.0C61.1 15.2 61.4 14.2 61.4 13.0C61.4 11.8 61.1 10.9 60.7 10.1C60.2 9.3 59.5 8.9 58.5 8.9C57.6 8.9 56.8 9.3 56.4 10.1C55.9 10.9 55.7 11.8 55.7 13.0C55.7 14.2 55.9 15.2 56.4 16.0C56.8 16.8 57.6 17.2 58.5 17.2Z"/>
    <path d="M69.3 7.9H72.7V19.6H69.3V7.9ZM71.0 5.3C70.4 5.3 69.9 5.1 69.5 4.8C69.0 4.4 68.8 3.9 68.8 3.3C68.8 2.6 69.0 2.1 69.5 1.7C69.9 1.3 70.4 1.1 71.0 1.1C71.6 1.1 72.1 1.3 72.5 1.7C72.9 2.1 73.1 2.6 73.1 3.3C73.1 3.9 72.9 4.4 72.5 4.8C72.1 5.1 71.6 5.3 71.0 5.3Z"/>
    <path d="M83.2 6.1C85.2 6.1 86.7 6.7 87.8 7.9C88.9 9.1 89.5 10.8 89.5 12.9C89.5 15.0 88.9 16.7 87.8 17.9C86.7 19.2 85.2 19.8 83.2 19.8C81.3 19.8 79.8 19.2 78.7 17.9V23.7H75.3V7.9H78.5L78.7 9.6C79.8 7.8 81.3 6.9 83.2 6.9V6.1ZM82.5 17.1C83.4 17.1 84.1 16.7 84.5 15.9C84.9 15.1 85.1 14.1 85.1 12.9C85.1 11.7 84.9 10.8 84.5 10.0C84.1 9.2 83.4 8.8 82.5 8.8C81.6 8.8 80.9 9.2 80.4 10.0C80.0 10.8 79.8 11.7 79.8 12.9C79.8 14.1 80.0 15.1 80.4 15.9C80.9 16.7 81.6 17.1 82.5 17.1Z"/>
    <path d="M95.9 19.8C93.9 19.8 92.3 19.2 91.2 18.0C90.1 16.8 89.6 15.1 89.6 13.0C89.6 10.9 90.1 9.2 91.2 7.9C92.3 6.7 93.9 6.1 95.9 6.1C97.9 6.1 99.4 6.7 100.5 7.9C101.6 9.2 102.1 10.9 102.1 13.0C102.1 15.1 101.6 16.8 100.5 18.0C99.4 19.2 97.9 19.8 95.9 19.8ZM95.9 17.2C96.8 17.2 97.5 16.8 97.9 16.0C98.3 15.2 98.6 14.2 98.6 13.0C98.6 11.8 98.3 10.9 97.9 10.1C97.5 9.3 96.8 8.9 95.9 8.9C95.0 8.9 94.2 9.3 93.8 10.1C93.4 10.9 93.1 11.8 93.1 13.0C93.1 14.2 93.4 15.2 93.8 16.0C94.2 16.8 95.0 17.2 95.9 17.2Z"/>
    <path d="M107.6 7.9L110.2 15.8L112.8 7.9H116.3L111.9 19.6H108.4L104.0 7.9H107.6Z"/>
    <path d="M120.4 19.6H117.0V7.9H120.2L120.4 9.6C121.3 8.0 122.7 7.1 124.5 7.1C125.5 7.1 126.4 7.4 127.1 7.9C127.9 8.5 128.4 9.3 128.6 10.3C129.5 8.5 131.0 7.6 132.9 7.6C134.4 7.6 135.5 8.1 136.3 9.1C137.1 10.1 137.5 11.4 137.5 13.0V19.6H134.1V13.4C134.1 12.4 133.9 11.6 133.5 11.2C133.2 10.7 132.6 10.4 131.9 10.4C131.1 10.4 130.4 10.7 129.9 11.3C129.4 11.9 129.2 12.8 129.2 14.0V19.6H125.8V13.4C125.8 12.4 125.6 11.6 125.2 11.2C124.8 10.7 124.2 10.4 123.5 10.4C122.7 10.4 122.0 10.7 121.5 11.3C121.0 11.9 120.8 12.8 120.8 14.0V19.6H120.4Z"/>
    <path d="M150.0 19.6H146.6V18.1C145.9 19.2 144.8 19.8 143.3 19.8C141.8 19.8 140.6 19.3 139.7 18.3C138.8 17.3 138.4 16.0 138.4 14.4V7.9H141.8V14.0C141.8 15.0 142.0 15.8 142.4 16.2C142.7 16.7 143.3 16.9 144.0 16.9C144.9 16.9 145.5 16.5 145.9 15.7C146.2 15.1 146.4 14.1 146.4 12.9V7.9H150.0V19.6Z"/>
  </g>
</svg>
